#N canvas 1922 51 1916 1027 10;
#X msg 3 46 pluginLicense: http://usefulinc.com/doap/licenses/mit;
#X msg 3 26 pluginName: Midi Demo Plugin;
#X msg 3 6 pluginURI: http://x37v.info/pdlv2/mididemoplugin.html;
#X obj 92 355 notein;
#X obj 91 508 noteout;
#X obj 191 508 pgmout;
#X obj 239 508 bendout;
#X obj 143 508 ctlout;
#X obj 292 508 touchout;
#X obj 351 508 polytouchout;
#X obj 629 352 midiin;
#X obj 677 352 sysexin;
#X obj 438 508 midiout;
#X obj 92 402 pack f f f;
#X obj 92 431 print note;
#X obj 160 402 pack f f f;
#X obj 160 355 ctlin;
#X obj 160 431 print cc;
#X obj 229 402 pack f f f;
#X obj 229 355 polytouchin;
#X obj 229 431 print polytouch;
#X obj 330 355 pgmin;
#X obj 330 402 pack f f;
#X obj 330 431 print program;
#X obj 418 401 pack f f;
#X obj 418 354 bendin;
#X obj 418 430 print bend;
#X obj 486 401 pack f f;
#X obj 486 354 touchin;
#X obj 486 430 print touch;
#X connect 3 0 13 0;
#X connect 3 1 13 1;
#X connect 3 2 13 2;
#X connect 13 0 14 0;
#X connect 15 0 17 0;
#X connect 16 0 15 0;
#X connect 16 1 15 1;
#X connect 16 2 15 2;
#X connect 18 0 20 0;
#X connect 19 0 18 0;
#X connect 19 1 18 1;
#X connect 19 2 18 2;
#X connect 21 0 22 0;
#X connect 21 1 22 1;
#X connect 22 0 23 0;
#X connect 24 0 26 0;
#X connect 25 0 24 0;
#X connect 25 1 24 1;
#X connect 27 0 29 0;
#X connect 28 0 27 0;
#X connect 28 1 27 1;
