#N canvas 0 49 1045 711 10;
#X msg 3 26 pluginName: Midi Demo Plugin;
#X msg 3 6 pluginURI: http://x37v.info/pdlv2/mididemoplugin.html;
#X obj 10 74 notein;
#X obj 11 199 noteout;
#X obj 111 199 pgmout;
#X obj 159 199 bendout;
#X obj 63 199 ctlout;
#X obj 212 199 touchout;
#X obj 271 199 polytouchout;
#X obj 521 210 midiin;
#X obj 569 210 sysexin;
#X obj 538 245 midiout;
#X obj 10 121 pack f f f;
#X obj 10 150 print note;
#X obj 78 121 pack f f f;
#X obj 78 74 ctlin;
#X obj 78 150 print cc;
#X obj 147 121 pack f f f;
#X obj 147 74 polytouchin;
#X obj 147 150 print polytouch;
#X obj 248 74 pgmin;
#X obj 248 121 pack f f;
#X obj 248 150 print program;
#X obj 336 120 pack f f;
#X obj 336 73 bendin;
#X obj 336 149 print bend;
#X obj 404 120 pack f f;
#X obj 404 73 touchin;
#X obj 404 149 print touch;
#X floatatom 14 324 0 0 0 0 - - -;
#X obj 14 429 noteout;
#X obj 14 403 makenote 64 250;
#X obj 14 350 metro 500;
#X msg 14 297 1;
#X msg 46 297 0;
#X msg 14 377 60;
#X obj 12 249 loadbang;
#X obj 146 397 f 0;
#X obj 146 419 + 1;
#X obj 146 444 mod 128;
#X obj 142 583 ctlout;
#X obj 158 563 pgmout;
#X obj 167 534 bendout;
#X obj 176 512 touchout;
#X obj 186 488 polytouchout;
#X text 638 231 not supported yet;
#X text 478 71 <- inputs;
#X text 361 200 <- outputs;
#X msg 3 46 pluginLicense: http://usefulinc.com/doap/licenses/gpl;
#X text 372 7 To create an LV2 plugin with a midi output or midi input
\, just use any of the midi in or out objects below in your to 'plugin.pd'
patch.;
#X text 76 252 <- generate some midi out;
#X text 486 150 <- print out the midi you get.. maybe not realtime
safe?;
#X connect 2 0 12 0;
#X connect 2 1 12 1;
#X connect 2 2 12 2;
#X connect 12 0 13 0;
#X connect 14 0 16 0;
#X connect 15 0 14 0;
#X connect 15 1 14 1;
#X connect 15 2 14 2;
#X connect 17 0 19 0;
#X connect 18 0 17 0;
#X connect 18 1 17 1;
#X connect 18 2 17 2;
#X connect 20 0 21 0;
#X connect 20 1 21 1;
#X connect 21 0 22 0;
#X connect 23 0 25 0;
#X connect 24 0 23 0;
#X connect 24 1 23 1;
#X connect 26 0 28 0;
#X connect 27 0 26 0;
#X connect 27 1 26 1;
#X connect 29 0 32 0;
#X connect 31 0 30 0;
#X connect 31 1 30 1;
#X connect 32 0 35 0;
#X connect 32 0 37 0;
#X connect 33 0 29 0;
#X connect 34 0 29 0;
#X connect 35 0 31 0;
#X connect 36 0 33 0;
#X connect 37 0 38 0;
#X connect 38 0 37 1;
#X connect 38 0 39 0;
#X connect 39 0 40 0;
#X connect 39 0 41 0;
#X connect 39 0 42 0;
#X connect 39 0 43 0;
#X connect 39 0 44 0;
