#N canvas 0 49 1364 717 10;
#X obj 325 79 print width;
#X obj 325 153 print balance;
#X obj 325 56 change;
#X obj 325 126 change;
#X obj 325 30 r \$0-lv2-width label:Width range: 0 0.5 1;
#X obj 325 101 receive \$0-lv2-balance label:Balance range: 0 0.5 1;
#X obj 459 299 s \$0-lv2-outtest label:Test range: 0 0.25 100;
#X text 653 43 make a message with pluginURI: http://x37v.info/myplugin2.html
, f 76;
#X text 653 59 make a message with: pluginName: My Plugin;
#X msg 654 119 pluginLicense: http://usefulinc.com/doap/licenses/mit
;
#X obj 29 41 adc~;
#X obj 29 80 dac~;
#X msg 654 99 pluginName: Template Plugin;
#X msg 654 78 pluginURI: http://x37v.info/pdlv2/templateplugin.html
;
#X text 74 41 just passing through right now;
#X connect 2 0 0 0;
#X connect 3 0 1 0;
#X connect 4 0 2 0;
#X connect 5 0 3 0;
#X connect 10 0 11 0;
#X connect 10 1 11 1;
