#N canvas 1922 51 1916 1027 10;
#X obj 467 234 print width;
#X obj 467 308 print balance;
#X obj 467 211 change;
#X obj 467 281 change;
#X obj 467 185 r \$1-lv2-width label:Width range: 0 0.5 1;
#X obj 467 256 receive \$1-lv2-balance label:Balance range: 0 0.5 1
;
#X msg 3 26 pluginName: Template Plugin;
#X msg 3 6 pluginURI: http://x37v.info/pdlv2/templateplugin.html;
#X obj 423 364 s \$1-lv2-outtest label:Test range: 0 0.25 1;
#X text 731 184 input called 'Wdith' with range 0..1 and default value
of 0.5, f 62;
#X text 792 257 input called 'Balance' with range 0..1 and default
value of 0.5, f 64;
#X text 696 366 output called 'Test';
#X text 10 88 audio uses inlet~ and outlet~;
#X text 30 328 outlet~/inlet~ label:LabeName;
#X text 49 345 optional: group:Name:ClassName:MemberRole;
#X text 50 360 the Name just uniquely identifies the group \, the ClassName
is the group class \, like StereoGroup and the MemberRole identifies
the member that this outlet or inlet is in the group \, like right
;
#X msg 3 67 pluginMaintainer: xnor;
#X obj 13 113 inlet~ group:In:StereoGroup:left;
#X obj 48 135 inlet~ group:In:StereoGroup:right;
#X obj 88 160 inlet~ label:Toast-Man;
#X obj 12 289 outlet~ group:Out:StereoGroup:left;
#X obj 48 264 outlet~ group:Out:StereoGroup:right;
#X msg 3 46 pluginLicense: http://usefulinc.com/doap/licenses/gpl;
#X text 365 71 you can create audio inputs by using inlet~ outputs
using outlet~ and control inputs and outputs using send/recieve in
the formats shown here.;
#X text 346 9 <- these define the plugin name \, unique URI \, license
and maintainer for LV2. Each plugin needs a name and unique URI \,
generally LV2 authors use web URIs \, which don't actually have to
exist but are more likely to be unique if you own the domain., f 78
;
#X text 466 118 controls use \$1-lv2 prefixed sends and receives \,
they must have a unique name after the lv2- and can only be valid c
identifiers \, so only use a-zA-Z_ to start and then after that you
can also use numbers \, but no dashes.;
#X connect 2 0 0 0;
#X connect 3 0 1 0;
#X connect 3 0 8 0;
#X connect 4 0 2 0;
#X connect 5 0 3 0;
#X connect 17 0 20 0;
#X connect 18 0 21 0;
