#N canvas 1922 51 1916 1027 10;
#X obj 170 120 test_abs;
#X obj 171 166 print;
#X msg 423 65 pluginName: Abstraction Test;
#X msg 422 87 pluginURI: http://x37v.info/pdlv2/abstractiontest.html
;
#X obj 169 145 change;
#X obj 168 85 r \$1-lv2-test range: 0 0 1;
#X connect 0 0 4 0;
#X connect 4 0 1 0;
#X connect 5 0 0 0;
