#N canvas 0 49 1364 717 10;
#X obj 155 40 print;
#X obj 155 -17 loadbang;
#X msg 155 14 GOT LOAD BANG;
#X obj 325 30 r \$0-width;
#X obj 325 79 print width;
#X obj 404 31 r \$0-balance;
#X obj 404 83 print balance;
#X obj 325 56 change;
#X obj 403 57 change;
#X obj 37 -2 adc~;
#X obj 37 37 dac~;
#X connect 1 0 2 0;
#X connect 2 0 0 0;
#X connect 3 0 7 0;
#X connect 5 0 8 0;
#X connect 7 0 4 0;
#X connect 8 0 6 0;
#X connect 9 0 10 0;
#X connect 9 1 10 1;
