#N canvas 0 30 1351 736 10;
#X floatatom 43 160 5 0 0 0 - - -, f 5;
#X floatatom 47 217 5 0 0 0 - - -, f 5;
#X msg 57 55 pluginURI: http://mywebsite/simpleDistortion.html;
#X obj 508 340 lop~ 0.7;
#X floatatom 570 369 5 0 0 0 - - -, f 5;
#X obj 508 435 *~;
#X obj 570 411 lop~ 2;
#X obj 570 390 sig~ 30;
#N canvas 1922 51 1916 1027 mix 0;
#X obj 203 190 inlet~;
#X obj 146 190 inlet~;
#X obj 311 199 inlet~;
#X obj 144 274 *~;
#X obj 145 367 outlet~;
#X obj 144 234 -~;
#X text 357 199 a 0...1;
#X obj 144 315 +~;
#X text 141 166 crossfade inlet1 and inlet2 by parameter a = 0...1
;
#X text 302 272 out = a*in2 + (1-a)in1;
#X text 306 295 = a*in2 + in1 - a*in1;
#X text 307 314 = a (in2 - in1) + in1;
#X connect 0 0 5 0;
#X connect 1 0 5 1;
#X connect 1 0 7 1;
#X connect 2 0 3 1;
#X connect 3 0 7 0;
#X connect 5 0 3 0;
#X connect 7 0 4 0;
#X restore 673 498 pd mix;
#X obj 509 455 hip~ 10;
#X obj 509 271 *~ 0.5;
#X obj 707 441 r \$0-dryWet;
#X obj 508 367 +~ 1;
#X obj 463 406 *~;
#X obj 85 181 s \$0-dryWet;
#X obj 85 240 s \$0-drive;
#X obj 426 352 r \$0-drive;
#X obj 901 339 lop~ 0.7;
#X floatatom 963 368 5 0 0 0 - - -, f 5;
#X obj 901 434 *~;
#X obj 963 410 lop~ 2;
#X obj 963 389 sig~ 30;
#N canvas 9 84 450 300 mix 0;
#X obj 203 190 inlet~;
#X obj 146 190 inlet~;
#X obj 311 199 inlet~;
#X obj 144 274 *~;
#X obj 145 367 outlet~;
#X obj 144 234 -~;
#X text 357 199 a 0...1;
#X obj 144 315 +~;
#X text 141 166 crossfade inlet1 and inlet2 by parameter a = 0...1
;
#X text 302 272 out = a*in2 + (1-a)in1;
#X text 306 295 = a*in2 + in1 - a*in1;
#X text 307 314 = a (in2 - in1) + in1;
#X connect 0 0 5 0;
#X connect 1 0 5 1;
#X connect 1 0 7 1;
#X connect 2 0 3 1;
#X connect 3 0 7 0;
#X connect 5 0 3 0;
#X connect 7 0 4 0;
#X restore 1066 497 pd mix;
#X obj 902 454 hip~ 10;
#X obj 902 270 *~ 0.5;
#X obj 1100 440 r \$0-dryWet;
#X obj 901 366 +~ 1;
#X obj 856 405 *~;
#X obj 819 358 r \$0-drive;
#X obj 1081 177 *~ 1;
#X obj 690 179 *~ 1;
#X msg 57 80 pluginName: StereoInOutDistortionDemo;
#X obj 570 339 delwrite~ \$0-delL 3000;
#X obj 508 479 vd~ \$0-delL;
#X obj 963 339 delwrite~ \$0-delR 3000;
#X obj 901 479 vd~ \$0-delR;
#N canvas 6 84 1388 960 license 0;
#X text 298 187 Example patch for Puredata (pd) to LV2 Plugin bridge.
Copyright 2012 Martin Schied <m@unknown-error.com> \, \; \; Permission
to use \, copy \, modify \, and/or distribute this software for any
purpose with or without fee is hereby granted \, provided that the
above copyright notice and this permission notice appear in all copies.
\; \; THIS SOFTWARE IS PROVIDED "AS IS" AND THE AUTHOR DISCLAIMS ALL
WARRANTIES WITH REGARD TO THIS SOFTWARE INCLUDING ALL IMPLIED WARRANTIES
OF MERCHANTABILITY AND FITNESS. IN NO EVENT SHALL THE AUTHOR BE LIABLE
FOR ANY SPECIAL \, DIRECT \, INDIRECT \, OR CONSEQUENTIAL DAMAGES OR
ANY DAMAGES WHATSOEVER RESULTING FROM LOSS OF USE \, DATA OR PROFITS
\, WHETHER IN AN ACTION OF CONTRACT \, NEGLIGENCE OR OTHER TORTIOUS
ACTION \, ARISING OUT OF OR IN CONNECTION WITH THE USE OR PERFORMANCE
OF THIS SOFTWARE.;
#X restore 50 541 pd license;
#X obj 85 159 r \$1-lv2-control1 label:DryWet range: 0 0.5 1;
#X obj 85 215 r \$1-lv2-control2 label:Drive range: 0 2 150;
#X obj 690 125 inlet~ group:in:StereoGroup:left;
#X obj 1081 134 inlet~ group:in:StereoGroup:right;
#X obj 674 552 outlet~ group:out:StereoGroup:left;
#X obj 1024 545 outlet~ group:out:StereoGroup:right;
#X text 48 499 (c) Martin Schied 2012 \, idea for distortion method
derived from a discussion with Mathieu Bouchard. Updated by xnor for
pdlv2;
#X connect 0 0 14 0;
#X connect 1 0 15 0;
#X connect 3 0 12 0;
#X connect 4 0 7 0;
#X connect 5 0 9 0;
#X connect 6 0 5 1;
#X connect 7 0 6 0;
#X connect 8 0 41 0;
#X connect 9 0 33 0;
#X connect 10 0 3 0;
#X connect 10 0 32 0;
#X connect 11 0 8 2;
#X connect 12 0 13 0;
#X connect 13 0 5 0;
#X connect 16 0 13 1;
#X connect 17 0 26 0;
#X connect 18 0 21 0;
#X connect 19 0 23 0;
#X connect 20 0 19 1;
#X connect 21 0 20 0;
#X connect 22 0 42 0;
#X connect 23 0 35 0;
#X connect 24 0 17 0;
#X connect 24 0 34 0;
#X connect 25 0 22 2;
#X connect 26 0 27 0;
#X connect 27 0 19 0;
#X connect 28 0 27 1;
#X connect 29 0 24 0;
#X connect 29 0 22 1;
#X connect 30 0 10 0;
#X connect 30 0 8 1;
#X connect 33 0 8 0;
#X connect 35 0 22 0;
#X connect 37 0 14 0;
#X connect 38 0 15 0;
#X connect 39 0 30 0;
#X connect 40 0 29 0;
