#N canvas 2197 281 826 611 10;
#X obj 137 191 rjlib/e_beequad;
#X obj 106 408 xfade~;
#X obj 273 206 abs;
#X obj 122 145 rjlib/e_beequad;
#X text 322 274 make a kind of large center area with no effect;
#X obj 121 361 xfade~;
#X obj 274 274 *~ 10;
#X obj 172 274 > 0;
#X msg 172 295 \$1 10;
#X obj 172 314 line~;
#X obj 106 489 outlet~;
#X obj 60 95 inlet~;
#X obj 181 99 inlet, f 6;
#X text 36 52 audio;
#X text 109 53 lpf params;
#X obj 224 98 inlet;
#X text 201 53 hpf params;
#X obj 273 98 inlet;
#X text 288 54 control;
#X text 210 316 <- quickly switch between filters;
#X obj 273 251 sig~;
#X connect 0 0 5 1;
#X connect 1 0 10 0;
#X connect 2 0 20 0;
#X connect 3 0 5 0;
#X connect 5 0 1 1;
#X connect 6 0 1 2;
#X connect 7 0 8 0;
#X connect 8 0 9 0;
#X connect 9 0 5 2;
#X connect 11 0 0 0;
#X connect 11 0 3 0;
#X connect 11 0 1 0;
#X connect 12 0 3 1;
#X connect 15 0 0 1;
#X connect 17 0 2 0;
#X connect 17 0 7 0;
#X connect 20 0 6 0;
