#N canvas 1920 30 1916 1027 10;
#X msg 3 47 pluginMaintainer: xnor;
#X obj 13 113 inlet~ group:In:StereoGroup:leftChannel;
#X obj 67 136 inlet~ group:In:StereoGroup:rightChannel;
#X obj 163 623 outlet~ group:Out:StereoGroup:rightChannel;
#X obj 78 647 outlet~ group:Out:StereoGroup:leftChannel;
#X obj 262 372 rjlib/u_highpassq;
#X obj 159 372 rjlib/u_lowpassq;
#X obj 370 254 loadbang;
#X text 432 255 q;
#X obj 262 291 mtof;
#X floatatom 262 332 5 0 0 0 - - -, f 5;
#X msg 3 26 pluginName: DJ Filter;
#X msg 3 6 pluginURI: http://x37v.info/pdlv2/djfilter.html;
#X obj 338 125 r \$1-lv2-control label:Control range: -1 0 1;
#X obj 223 230 moses 0;
#X obj 223 256 + 1;
#X obj 223 291 * 127;
#X obj 329 84 hsl 128 15 -1 1 0 0 empty empty empty -2 -8 0 10 -262144
-1 -1 6350 1;
#X obj 159 341 mtof;
#X msg 326 60 0;
#X obj 326 178 line 2;
#X msg 326 154 \$1 10;
#X msg 337 280 1;
#X obj 326 209 s \$0-control;
#X obj 163 491 filter_chan~;
#X obj 262 409 r \$0-control;
#X obj 79 557 +~ 0;
#X obj 164 555 +~ 0;
#X obj 80 492 filter_chan~;
#X obj 271 312 + 20;
#X obj 262 256 * 135;
#X msg 370 280 2;
#X obj 326 36 loadbang;
#X obj 14 388 *~ 0.8;
#X obj 66 387 *~ 0.8;
#X connect 1 0 33 0;
#X connect 2 0 34 0;
#X connect 5 0 24 2;
#X connect 5 0 28 2;
#X connect 6 0 24 1;
#X connect 6 0 28 1;
#X connect 7 0 31 0;
#X connect 7 0 22 0;
#X connect 9 0 29 0;
#X connect 10 0 5 0;
#X connect 13 0 21 0;
#X connect 14 0 15 0;
#X connect 14 1 30 0;
#X connect 15 0 16 0;
#X connect 16 0 18 0;
#X connect 17 0 21 0;
#X connect 18 0 6 0;
#X connect 19 0 17 0;
#X connect 20 0 14 0;
#X connect 20 0 23 0;
#X connect 21 0 20 0;
#X connect 22 0 6 1;
#X connect 24 0 27 0;
#X connect 25 0 24 3;
#X connect 25 0 28 3;
#X connect 26 0 4 0;
#X connect 27 0 3 0;
#X connect 28 0 26 0;
#X connect 29 0 10 0;
#X connect 30 0 9 0;
#X connect 31 0 5 1;
#X connect 32 0 19 0;
#X connect 33 0 28 0;
#X connect 34 0 24 0;
