#N canvas 1920 30 1916 1027 10;
#X text 10 88 audio uses inlet~ and outlet~;
#X msg 3 47 pluginMaintainer: xnor;
#X obj 13 113 inlet~ group:In:StereoGroup:leftChannel;
#X obj 67 136 inlet~ group:In:StereoGroup:rightChannel;
#X obj 134 745 outlet~ group:Out:StereoGroup:rightChannel;
#X obj 45 769 outlet~ group:Out:StereoGroup:leftChannel;
#X obj 148 469 rjlib/e_beequad;
#X obj 262 372 rjlib/u_highpassq;
#X obj 159 372 rjlib/u_lowpassq;
#X obj 262 256 * 127;
#X obj 370 254 loadbang;
#X text 432 255 q;
#X obj 262 291 mtof;
#X floatatom 262 332 5 0 0 0 - - -, f 5;
#X obj 36 470 rjlib/e_beequad;
#X msg 3 26 pluginName: DJ Filter;
#X msg 3 6 pluginURI: http://x37v.info/pdlv2/djfilter.html;
#X obj 338 125 r \$1-lv2-control label:Control range: -1 0 1;
#X obj 223 230 moses 0;
#X obj 223 256 + 1;
#X obj 223 291 * 127;
#X obj 329 84 hsl 128 15 -1 1 0 0 empty empty empty -2 -8 0 10 -262144
-1 -1 6350 1;
#X obj 159 341 mtof;
#X obj 134 651 xfade~;
#X obj 273 494 abs;
#X obj 273 539 line~;
#X msg 273 517 \$1 15;
#X msg 342 26 0;
#X obj 45 654 xfade~;
#X obj 169 494 rjlib/e_beequad;
#X obj 70 505 rjlib/e_beequad;
#X text 322 562 make a kind of large center area with no effect;
#X obj 326 178 line 2;
#X msg 326 154 \$1 10;
#X msg 370 280 2;
#X msg 337 280 1;
#X obj 326 209 s \$0-control;
#X obj 273 467 r \$0-control;
#X obj 62 574 xfade~;
#X obj 14 388 +~ 0;
#X obj 125 390 +~ 0;
#X obj 150 570 xfade~;
#X obj 274 562 *~ 10;
#X obj 216 522 > 0;
#X msg 215 548 \$1 10;
#X obj 215 570 line~;
#X connect 2 0 39 0;
#X connect 3 0 40 0;
#X connect 6 0 41 1;
#X connect 7 0 6 1;
#X connect 7 0 14 1;
#X connect 8 0 29 1;
#X connect 8 0 30 1;
#X connect 9 0 12 0;
#X connect 10 0 34 0;
#X connect 10 0 35 0;
#X connect 12 0 13 0;
#X connect 13 0 7 0;
#X connect 14 0 38 1;
#X connect 17 0 33 0;
#X connect 18 0 19 0;
#X connect 18 1 9 0;
#X connect 19 0 20 0;
#X connect 20 0 22 0;
#X connect 21 0 33 0;
#X connect 22 0 8 0;
#X connect 23 0 4 0;
#X connect 24 0 26 0;
#X connect 25 0 42 0;
#X connect 26 0 25 0;
#X connect 27 0 21 0;
#X connect 28 0 5 0;
#X connect 29 0 41 0;
#X connect 30 0 38 0;
#X connect 32 0 18 0;
#X connect 32 0 36 0;
#X connect 33 0 32 0;
#X connect 34 0 7 1;
#X connect 35 0 8 1;
#X connect 37 0 24 0;
#X connect 37 0 43 0;
#X connect 38 0 28 1;
#X connect 39 0 28 0;
#X connect 39 0 14 0;
#X connect 39 0 30 0;
#X connect 40 0 6 0;
#X connect 40 0 29 0;
#X connect 40 0 23 0;
#X connect 41 0 23 1;
#X connect 42 0 23 2;
#X connect 42 0 28 2;
#X connect 43 0 44 0;
#X connect 44 0 45 0;
#X connect 45 0 41 2;
#X connect 45 0 38 2;
