#N canvas 1926 32 1916 1027 10;
#X text 10 88 audio uses inlet~ and outlet~;
#X msg 3 47 pluginMaintainer: xnor;
#X obj 13 113 inlet~ group:In:StereoGroup:leftChannel;
#X obj 48 135 inlet~ group:In:StereoGroup:rightChannel;
#X obj 48 743 outlet~ group:Out:StereoGroup:rightChannel;
#X obj 12 768 outlet~ group:Out:StereoGroup:leftChannel;
#X obj 148 469 rjlib/e_beequad;
#X obj 157 398 rjlib/u_highpassq;
#X obj 269 398 rjlib/u_lowpassq;
#X obj 262 256 * 127;
#X msg 370 280 2;
#X obj 370 254 loadbang;
#X text 432 255 q;
#X obj 262 291 mtof;
#X floatatom 262 332 5 0 0 0 - - -, f 5;
#X obj 48 469 rjlib/e_beequad;
#X msg 3 26 pluginName: DJ Filter;
#X msg 3 6 pluginURI: http://x37v.info/pdlv2/djfilter.html;
#X obj 262 201 r \$1-lv2-control label:Control range: -1 0 1;
#X connect 2 0 15 0;
#X connect 3 0 6 0;
#X connect 6 0 4 0;
#X connect 7 0 6 1;
#X connect 7 0 15 1;
#X connect 9 0 13 0;
#X connect 10 0 8 1;
#X connect 10 0 7 1;
#X connect 11 0 10 0;
#X connect 13 0 14 0;
#X connect 14 0 8 0;
#X connect 14 0 7 0;
#X connect 15 0 5 0;
#X connect 18 0 9 0;
