#N canvas 2277 371 450 300 10;
#X obj 67 166 *~;
#X obj 91 129 cos~;
#X obj 123 151 cos~;
#X obj 103 179 *~;
#X obj 123 129 +~ 0.75;
#X obj 91 100 *~ 0.25;
#X obj 90 65 clip~ 0 1;
#X obj 19 16 inlet~;
#X obj 63 16 inlet~;
#X obj 75 217 outlet~;
#X obj 107 15 inlet~;
#X text 169 10 equal power xfade \, input is signal from 0..1;
#X connect 0 0 9 0;
#X connect 1 0 0 1;
#X connect 2 0 3 1;
#X connect 3 0 9 0;
#X connect 4 0 2 0;
#X connect 5 0 1 0;
#X connect 5 0 4 0;
#X connect 6 0 5 0;
#X connect 7 0 0 0;
#X connect 8 0 3 0;
#X connect 10 0 6 0;
