#N canvas 1922 51 1916 1027 10;
#X msg 3 47 pluginMaintainer: xnor;
#X obj 95 339 outlet~ group:Out:StereoGroup:rightChannel;
#X obj 58 366 outlet~ group:Out:StereoGroup:leftChannel;
#X msg 3 26 pluginName: Auto-Panner;
#X obj 28 88 inlet~ label:Input;
#X obj 83 177 /;
#X obj 83 132 t b f;
#X msg 83 155 1;
#X obj 59 300 *~;
#X obj 83 263 cos~;
#X obj 115 285 cos~;
#X obj 95 313 *~;
#X msg 3 6 pluginURI: http://x37v.info/pdlv2/autopanner.html;
#X obj 115 263 +~ 0.75;
#X obj 83 234 *~ 0.25;
#X obj 83 111 r \$1-lv2-period label:Period range: 0.1 1 60;
#X obj 28 234 +~ 0;
#N canvas 1922 51 1916 1027 triangle 0;
#X obj 146 394 outlet~;
#X obj 157 190 inlet;
#X obj 157 217 phasor~;
#X obj 156 244 *~ 2;
#X obj 186 285 *~ -1;
#X obj 185 327 clip~ -1 0;
#X obj 124 327 clip~ 0 1;
#X obj 146 361 +~;
#X obj 186 305 +~ 1;
#X connect 1 0 2 0;
#X connect 2 0 3 0;
#X connect 3 0 4 0;
#X connect 3 0 6 0;
#X connect 4 0 8 0;
#X connect 5 0 7 1;
#X connect 6 0 7 0;
#X connect 7 0 0 0;
#X connect 8 0 5 0;
#X restore 83 205 pd triangle;
#X connect 4 0 16 0;
#X connect 5 0 17 0;
#X connect 6 0 7 0;
#X connect 6 1 5 1;
#X connect 7 0 5 0;
#X connect 8 0 2 0;
#X connect 9 0 8 1;
#X connect 10 0 11 1;
#X connect 11 0 1 0;
#X connect 13 0 10 0;
#X connect 14 0 9 0;
#X connect 14 0 13 0;
#X connect 15 0 6 0;
#X connect 16 0 8 0;
#X connect 16 0 11 0;
#X connect 17 0 14 0;
