#N canvas 0 30 1351 717 10;
#X obj 57 211 loadbang;
#X obj 605 222 osc~ 440;
#X obj 604 314 *~;
#X obj 604 186 +~;
#X obj 655 122 osc~ 0.5;
#X obj 513 151 lop~ 40;
#X obj 655 152 *~;
#X obj 513 74 r \$0-freq;
#X obj 104 487 s \$0-freq;
#X obj 107 605 s \$0-smooth;
#X obj 108 658 s \$0-vfreq;
#X obj 108 723 s \$0-vdepth;
#X obj 655 76 r \$0-vfreq;
#X obj 721 127 r \$0-vdepth;
#X obj 537 230 *~ 2;
#X obj 536 278 *~;
#X obj 619 247 r \$0-amp;
#X obj 536 254 osc~ 440;
#X obj 667 270 r \$0-smooth;
#X floatatom 62 466 5 0 0 0 - - -, f 5;
#X floatatom 66 523 5 0 0 0 - - -, f 5;
#X floatatom 68 582 5 0 0 0 - - -, f 5;
#X floatatom 67 634 5 0 0 0 - - -, f 5;
#X floatatom 68 698 5 0 0 0 - - -, f 5;
#X obj 105 546 s \$0-amp;
#X floatatom 625 267 5 0 0 0 - - -, f 5;
#X floatatom 721 152 5 0 0 0 - - -, f 5;
#X floatatom 666 98 5 0 0 0 - - -, f 5;
#X floatatom 513 98 5 0 0 0 - - -, f 5;
#X text 56 36 Each plugin needs an URI to identify it to the LV2 host.
;
#X obj 552 126 r \$0-smooth;
#X obj 619 290 lop~ 20;
#X text 54 138 a descriptive name for your patch - choose freely. Better
don't use the same name for different patches.;
#X text 54 50 it must be unique inside your plugins.;
#X text 54 90 the URI doesn't have to be a web URL - but often this
is just useful to contact the author.;
#X msg 58 71 pluginURI: http://mywebsite/sineWavePlugin.html;
#X text 66 228 Print something at plugin Startup - mostly useful for
debugging or to check if your plugin has been loaded. Ardour prints
this on the shell on my system \, other sequencers or other plugin
hosts might display it somewhere else.;
#X msg 57 297 I am a Synth with sines and vibrato. Apparently I work...
;
#X text 54 414 All input comes from the control inputs of your plugin
host.;
#X text 54 429 control inputs for your plugin are control1 to control5
for now.;
#X text 169 487 use your own send / receives inside the patch.;
#X text 512 34 The actual synth is very simple for demonstration...
;
#X text 25 35 1;
#X text 651 57 Vibrato;
#X text 512 55 Base Frequency.;
#X text 722 109 Vibrato Depth;
#X msg 57 170 pluginName: DemoSineSynth;
#N canvas 6 84 1388 960 license 0;
#X text 298 187 Example patch for Puredata (pd) to LV2 Plugin bridge.
Copyright 2012 Martin Schied <m@unknown-error.com> \, \; \; Permission
to use \, copy \, modify \, and/or distribute this software for any
purpose with or without fee is hereby granted \, provided that the
above copyright notice and this permission notice appear in all copies.
\; \; THIS SOFTWARE IS PROVIDED "AS IS" AND THE AUTHOR DISCLAIMS ALL
WARRANTIES WITH REGARD TO THIS SOFTWARE INCLUDING ALL IMPLIED WARRANTIES
OF MERCHANTABILITY AND FITNESS. IN NO EVENT SHALL THE AUTHOR BE LIABLE
FOR ANY SPECIAL \, DIRECT \, INDIRECT \, OR CONSEQUENTIAL DAMAGES OR
ANY DAMAGES WHATSOEVER RESULTING FROM LOSS OF USE \, DATA OR PROFITS
\, WHETHER IN AN ACTION OF CONTRACT \, NEGLIGENCE OR OTHER TORTIOUS
ACTION \, ARISING OUT OF OR IN CONNECTION WITH THE USE OR PERFORMANCE
OF THIS SOFTWARE.;
#X restore 510 596 pd license;
#X obj 57 324 print;
#X text 27 415 2;
#X text 486 32 3;
#X obj 473 416 outlet~ group:Out:StereoGroup:left label:left;
#X obj 655 388 outlet~ group:Out:StereoGroup:right label:right;
#X text 507 577 (c) Martin Schied 2012 \, update by xnor 2016 for pdlv2
;
#X text 62 743 Better don't use the receives (\$1-lv2-control1 and
so on) again in your patches as this will prevent the parser from working
correctly.;
#X obj 104 465 r \$1-lv2-freq label:Frequency range: 0 440 20000;
#X obj 105 521 r \$1-lv2-amp label:Amplitude range: 0 0.2 1;
#X obj 107 583 r \$1-lv2-smooth label:Smoothing range: 0.5 20 1000
;
#X obj 108 635 r \$1-lv2-vib-freq label:Vibrato-Freq range: 0 20 100
;
#X obj 108 698 r \$1-lv2-vib-depth label:Vibrato-Depth range: 0 20
100;
#X connect 0 0 37 0;
#X connect 1 0 2 0;
#X connect 2 0 52 0;
#X connect 3 0 1 0;
#X connect 3 0 14 0;
#X connect 4 0 6 0;
#X connect 5 0 3 0;
#X connect 6 0 3 1;
#X connect 7 0 28 0;
#X connect 12 0 4 0;
#X connect 12 0 27 0;
#X connect 13 0 6 1;
#X connect 13 0 26 0;
#X connect 14 0 17 0;
#X connect 15 0 51 0;
#X connect 16 0 25 0;
#X connect 16 0 31 0;
#X connect 17 0 15 0;
#X connect 18 0 31 1;
#X connect 19 0 8 0;
#X connect 20 0 24 0;
#X connect 21 0 9 0;
#X connect 22 0 10 0;
#X connect 23 0 11 0;
#X connect 28 0 5 0;
#X connect 30 0 5 1;
#X connect 31 0 2 1;
#X connect 31 0 15 1;
#X connect 37 0 48 0;
#X connect 55 0 8 0;
#X connect 56 0 24 0;
#X connect 57 0 9 0;
#X connect 58 0 10 0;
#X connect 59 0 11 0;
